<?xml version="1.0" encoding="utf-8"?>
<!-- Generator: Adobe Illustrator 16.0.4, SVG Export Plug-In . SVG Version: 6.00 Build 0)  -->
<!DOCTYPE svg PUBLIC "-//W3C//DTD SVG 1.1//EN" "http://www.w3.org/Graphics/SVG/1.1/DTD/svg11.dtd">
<svg version="1.1" id="Ebene_1" xmlns="http://www.w3.org/2000/svg" xmlns:xlink="http://www.w3.org/1999/xlink" x="0px" y="0px"
	 width="1500px" height="410px" viewBox="0 0 1500 410" enable-background="new 0 0 1500 410" xml:space="preserve">
<text transform="matrix(1 0 0 1 1226.0752 111.9258)" fill="#181716" font-family="'Syntax-Roman'" font-size="76.3949"> </text>
<text transform="matrix(1 0 0 1 1127.9082 119.7954)" fill="#181716" font-family="'Syntax-Roman'" font-size="60.9014"> </text>
<text transform="matrix(1 0 0 1 1486.6123 202.4414)" fill="#231F20" font-family="'Syntax-Roman'" font-size="60.9014"> </text>
<path fill="#2DC6D6" d="M363.5,305.079V171.05c0-17.06-2.208-32.549-6.61-46.449c-4.52-14.223-11.317-26.584-20.374-37.061
	c-9.159-10.629-19.916-18.606-32.269-23.925c-12.201-5.242-25.778-7.876-40.697-7.876c-7.724,0-15.242,0.893-22.541,2.651
	c-7.273,1.742-14.248,4.384-20.926,7.851l-0.06,0.051c-6.72,3.535-12.939,7.834-18.631,12.889c-1.989,1.758-3.908,3.611-5.778,5.548
	c-1.937-1.987-3.917-3.882-5.964-5.684c-5.846-5.166-12.04-9.473-18.556-12.905h-0.051c-13.22-6.924-27.622-10.4-43.212-10.4
	c-14.809,0-28.301,2.651-40.442,7.911c-12.37,5.353-23.144,13.338-32.303,23.925v0.042c-3.467,4.027-6.584,8.31-9.38,12.847
	c4.58-1.479,9.448-2.285,14.495-2.285c20.408,0,37.918,13.007,45.387,31.546c2.336-1.988,4.869-3.578,7.596-4.767
	c4.197-1.801,9.074-2.71,14.648-2.71c5.573,0,10.45,0.91,14.647,2.71c4.061,1.759,7.697,4.426,10.892,8.003h0.051
	c3.178,3.577,5.616,7.817,7.273,12.668v0.051c1.716,5.089,2.6,10.952,2.6,17.544v141.854v13.161h12.54h39.236h12.558v-13.161
	V163.225c0-6.626,0.883-12.472,2.617-17.485c1.657-4.809,4.146-9.032,7.443-12.668c3.253-3.594,6.966-6.288,11.112-8.072v-0.051
	c4.206-1.792,9.091-2.702,14.674-2.702c5.599,0,10.552,0.927,14.834,2.753l0.017-0.042c4.036,1.733,7.655,4.409,10.833,8.003
	c3.203,3.628,5.607,7.842,7.221,12.617v0.051c1.7,5.072,2.549,10.935,2.549,17.596v141.854v13.161h12.558h39.457H363.5V305.079z"/>
<path fill="#2DC6D6" d="M447.795,128.809c0.803-1.632,2.007-3.168,3.574-4.563c1.764-1.565,3.843-2.775,6.185-3.599l0.363-0.112
	c2.869-0.972,6.352-1.464,10.352-1.464h61.25V55.578h-55.515c-13.282,0-25.561,1.768-36.485,5.25
	c-11.419,3.624-21.514,9.194-29.995,16.549c-8.694,7.512-15.315,16.475-19.682,26.646c-4.255,9.939-6.413,21.073-6.413,33.093
	c0,6.285,0.726,12.492,2.157,18.446c1.419,5.92,3.584,11.712,6.435,17.216l0.262,0.462c2.62,4.918,5.743,9.526,9.324,13.749
	c-3.566,4.208-6.7,8.828-9.328,13.756l-0.26,0.46c-2.767,5.348-4.886,10.957-6.302,16.677l-0.367,0.933v0.685
	c-0.248,1.192-0.429,2.349-0.59,3.382l-0.164,1.03c-0.056,0.343-0.125,0.685-0.197,1.054c-0.141,0.711-0.316,1.595-0.441,2.626
	c-0.116,1.021-0.151,1.957-0.182,2.817c-0.014,0.386-0.027,0.771-0.057,1.2c-0.027,0.422-0.06,0.841-0.094,1.286
	c-0.091,1.188-0.194,2.534-0.194,3.977v0.11c0,4.066,0.32,8.287,0.978,12.887c1.029,7.317,2.858,14.077,5.438,20.095
	c4.371,10.18,10.992,19.142,19.64,26.604c0.906,0.793,1.783,1.351,2.427,1.76c0.188,0.12,0.373,0.227,0.58,0.386l0.416,0.327
	c2.093,1.65,4.466,3.521,7.151,5.191l1.979,1.168h0.263c5.441,2.814,12.182,6.157,17.212,7.757
	c10.919,3.475,23.197,5.236,36.491,5.236h55.515v-63.485h-61.25c-4.02,0-7.503-0.489-10.352-1.454l-0.358-0.111
	c-2.342-0.822-4.422-2.034-6.213-3.63c-0.638-0.562-1.259-1.306-1.82-2.007c-0.793-0.998-1.369-1.861-1.754-2.633l-0.199-0.47
	c-0.907-2.131-1.37-4.729-1.377-7.689c0.007-2.961,0.456-5.506,1.328-7.546c0.822-1.908,2.123-3.667,3.867-5.226l0.378-0.362
	c1.649-1.394,3.606-2.503,5.824-3.3l0.045-0.012c4.666-0.842,37.977-1.591,46.903-1.591h16.015v-63.316H504.54
	c-8.869,0-41.854-0.744-46.78-1.583c-2.373-0.865-4.473-2.121-6.238-3.729c-1.776-1.623-3.107-3.45-3.955-5.433l-0.249-0.529
	c-0.75-1.975-1.131-4.366-1.131-7.113c0-3.012,0.467-5.637,1.387-7.804L447.795,128.809z"/>
<path fill="#2DC6D6" d="M28.034,187.809v117.27v13.161H40.59h39.237h12.557v-13.161V187.817
	c-8.632,7.817-19.882,12.541-32.175,12.541C47.915,200.358,36.666,195.625,28.034,187.809"/>
<path fill="#181715" d="M60.2,114.961c-18.623,0-33.726,15.107-33.726,33.739c0,18.641,15.103,33.74,33.726,33.74
	c18.64,0,33.752-15.099,33.752-33.74C93.953,130.068,78.84,114.961,60.2,114.961"/>
<polygon fill="#181715" points="674.564,110.34 683.833,101.063 674.996,92.219 647.353,64.583 638.518,55.739 629.24,65.006 
	547.437,155.731 547.437,218.618 629.24,307.973 638.518,317.24 647.353,308.396 674.996,280.752 683.833,271.916 674.564,262.641 
	602.444,186.489 "/>
<g>
	<path fill="#181715" d="M750.28,83.911h5.16l-0.36,41.519h-5.159L750.28,83.911z"/>
	<path fill="#181715" d="M779.26,84.932l4.32-1.86l22.979,33.659h0.12l0.24-32.819h5.22l-0.36,40.679l-4.499,1.68l-22.8-33.959
		h-0.119l-0.24,33.119h-5.22L779.26,84.932z"/>
	<path fill="#181715" d="M834.879,119.25c2.221,1.56,5.58,3.06,8.82,3.06c4.859,0,8.22-2.939,8.22-7.56
		c0-10.56-18.3-6.239-18.3-20.759c0-6.42,5.22-10.92,12.6-10.92c4.08,0,7.74,1.26,11.04,3.24l-1.98,3.779
		c-2.46-1.62-4.92-3.06-8.819-3.06c-3.6,0-7.68,2.28-7.68,7.26c0,9.119,18.659,7.02,18.659,20.039c0,6.18-4.32,11.939-13.439,11.939
		c-4.5,0-7.92-1.14-11.399-3.3L834.879,119.25z"/>
	<path fill="#181715" d="M873.819,83.911h31.438v4.32h-13.14l-0.359,37.198h-5.16l0.36-37.198h-13.14V83.911z"/>
	<path fill="#181715" d="M924.998,83.911h5.16l-0.36,41.519h-5.159L924.998,83.911z"/>
	<path fill="#181715" d="M949.538,83.911h31.438v4.32h-13.14l-0.359,37.198h-5.16l0.36-37.198h-13.14V83.911z"/>
	<path fill="#181715" d="M1033.057,83.911l-0.18,25.859c-0.181,13.319-8.7,16.499-16.8,16.499c-8.999,0-16.139-4.02-16.139-16.619
		c0-3.3,0.06-7.14,0.119-11.34l0.12-14.399h5.16l-0.12,15.3c-0.06,3.899-0.12,7.859-0.12,11.699c0,7.56,4.021,11.04,11.34,11.04
		c6.12,0,11.22-3,11.279-12.479l0.181-25.56H1033.057z"/>
	<path fill="#181715" d="M1051.897,83.911h31.438v4.32h-13.14l-0.359,37.198h-5.16l0.36-37.198h-13.14V83.911z"/>
	<path fill="#181715" d="M749.74,164.911h22.199v4.32H754.9l-0.12,14.1h16.619v4.319h-16.559l-0.24,18.779h-5.22L749.74,164.911z"/>
	<path fill="#181715" d="M825.459,164.911l-0.18,25.859c-0.181,13.319-8.7,16.499-16.8,16.499c-8.999,0-16.139-4.02-16.139-16.619
		c0-3.3,0.06-7.14,0.119-11.34l0.12-14.399h5.16l-0.12,15.3c-0.06,3.899-0.12,7.859-0.12,11.699c0,7.56,4.021,11.04,11.34,11.04
		c6.12,0,11.22-3,11.279-12.479l0.181-25.56H825.459z M801.16,155.672h5.52v6.119h-5.52V155.672z M811,155.672h5.52v6.119H811
		V155.672z"/>
	<path fill="#181715" d="M848.739,164.911h12.54c7.859,0,13.199,4.021,13.199,10.92c0,6.779-4.62,10.739-10.439,11.52v0.12
		c2.76,0.54,5.1,4.26,6.84,6.42l8.34,11.039l-4.561,2.76l-9.779-13.319c-2.58-3.3-3.78-5.7-7.739-5.7h-3.3l-0.24,17.76h-5.22
		L848.739,164.911z M853.779,184.711h5.16c5.1,0,10.379-1.801,10.379-7.86c0-4.439-2.52-8.339-9.239-8.339h-6.18L853.779,184.711z"
		/>
	<path fill="#181715" d="M928.357,164.911h5.34l12.54,35.039l13.499-35.039h5.58l6.6,41.519l-5.04,0.84l-5.279-35.519h-0.12
		l-12.899,34.679h-4.92l-12.06-34.679h-0.12l-5.7,35.519l-4.979-0.84L928.357,164.911z"/>
	<path fill="#181715" d="M992.916,164.911h21.359v4.32h-16.259l-0.12,14.1h15.839v4.319h-15.779l-0.12,14.459h16.68v4.32h-21.959
		L992.916,164.911z"/>
	<path fill="#181715" d="M1066.115,171.511c-3.24-2.279-6.72-3.119-10.74-3.119c-9.659,0-16.499,7.68-16.499,17.279
		s6.84,17.279,16.499,17.279c3.66,0,7.44-1.38,10.68-3.24l2.04,3.66c-3.72,2.159-8.34,3.899-12.72,3.899
		c-12.299,0-22.019-8.039-22.019-21.599c0-12.72,9.72-21.6,22.019-21.6c4.92,0,8.88,1.2,12.899,3.36L1066.115,171.511z"/>
	<path fill="#181715" d="M1088.615,164.911h5.22l-0.18,18.42h22.379l0.24-18.42h5.22l-0.36,41.519h-5.22l0.181-18.779h-22.379
		l-0.24,18.779h-5.22L1088.615,164.911z"/>
	<path fill="#181715" d="M1157.374,164.911h4.92l16.499,40.679l-5.159,1.68l-5.64-14.64h-17.159l-6.061,14.64l-4.8-1.5
		L1157.374,164.911z M1159.714,169.591h-0.12l-6.959,18.72h13.619L1159.714,169.591z"/>
	<path fill="#181715" d="M1193.194,164.911h31.438v4.32h-13.14l-0.359,37.198h-5.16l0.36-37.198h-13.14V164.911z"/>
	<path fill="#181715" d="M1243.833,164.911h12.54c7.859,0,13.199,4.021,13.199,10.92c0,6.779-4.62,10.739-10.439,11.52v0.12
		c2.76,0.54,5.1,4.26,6.84,6.42l8.34,11.039l-4.561,2.76l-9.779-13.319c-2.58-3.3-3.78-5.7-7.739-5.7h-3.3l-0.24,17.76h-5.22
		L1243.833,164.911z M1248.873,184.711h5.16c5.1,0,10.379-1.801,10.379-7.86c0-4.439-2.52-8.339-9.239-8.339h-6.18L1248.873,184.711
		z"/>
	<path fill="#181715" d="M1312.951,164.071c12.3,0,22.02,8.04,22.02,21.6c0,12.719-9.72,21.599-22.02,21.599
		c-12.299,0-22.019-8.039-22.019-21.599C1290.933,172.951,1300.652,164.071,1312.951,164.071z M1312.951,202.95
		c9.66,0,16.5-7.68,16.5-17.279s-6.84-17.279-16.5-17.279c-9.659,0-16.499,7.68-16.499,17.279S1303.292,202.95,1312.951,202.95z"/>
	<path fill="#181715" d="M1356.212,165.932l4.32-1.86l22.979,33.659h0.12l0.24-32.819h5.22l-0.359,40.679l-4.5,1.68l-22.8-33.959
		h-0.119l-0.24,33.119h-5.22L1356.212,165.932z"/>
	<path fill="#181715" d="M1412.911,164.911h5.16l-0.36,41.519h-5.159L1412.911,164.911z"/>
	<path fill="#181715" d="M1441.891,164.911h5.16l-0.36,41.519h-5.159L1441.891,164.911z M1446.871,185.311l20.639-21.239l3.6,3.18
		l-17.819,17.939l17.939,18.659l-3.899,3.42L1446.871,185.311z"/>
	<path fill="#181715" d="M750.28,245.911h5.16l-0.36,41.519h-5.159L750.28,245.911z"/>
	<path fill="#181715" d="M784.18,245.911h5.34l12.54,35.039l13.499-35.039h5.58l6.6,41.519l-5.04,0.84l-5.279-35.519h-0.12
		l-12.899,34.679h-4.92l-12.06-34.679h-0.12l-5.7,35.519l-4.979-0.84L784.18,245.911z"/>
	<path fill="#181715" d="M882.458,245.911h5.34l12.54,35.039l13.499-35.039h5.58l6.6,41.519l-5.04,0.84l-5.279-35.519h-0.12
		l-12.899,34.679h-4.92l-12.06-34.679h-0.12l-5.7,35.519l-4.979-0.84L882.458,245.911z"/>
	<path fill="#181715" d="M959.616,245.911h4.92l16.499,40.679l-5.159,1.68l-5.64-14.64h-17.159l-6.061,14.64l-4.8-1.5
		L959.616,245.911z M961.956,250.591h-0.12l-6.959,18.72h13.619L961.956,250.591z"/>
	<path fill="#181715" d="M999.336,281.25c2.221,1.56,5.58,3.06,8.82,3.06c4.859,0,8.22-2.939,8.22-7.56
		c0-10.56-18.3-6.239-18.3-20.759c0-6.42,5.22-10.92,12.6-10.92c4.08,0,7.74,1.26,11.04,3.24l-1.98,3.779
		c-2.46-1.62-4.92-3.06-8.819-3.06c-3.6,0-7.68,2.28-7.68,7.26c0,9.119,18.659,7.02,18.659,20.039c0,6.18-4.32,11.939-13.439,11.939
		c-4.5,0-7.92-1.14-11.399-3.3L999.336,281.25z"/>
	<path fill="#181715" d="M1073.074,252.511c-3.24-2.279-6.72-3.119-10.74-3.119c-9.659,0-16.499,7.68-16.499,17.279
		s6.84,17.279,16.499,17.279c3.66,0,7.44-1.38,10.68-3.24l2.04,3.66c-3.72,2.159-8.34,3.899-12.72,3.899
		c-12.299,0-22.019-8.039-22.019-21.599c0-12.72,9.72-21.6,22.019-21.6c4.92,0,8.88,1.2,12.899,3.36L1073.074,252.511z"/>
	<path fill="#181715" d="M1095.574,245.911h5.22l-0.18,18.42h22.379l0.24-18.42h5.22l-0.36,41.519h-5.22l0.181-18.779h-22.379
		l-0.24,18.779h-5.22L1095.574,245.911z"/>
	<path fill="#181715" d="M1152.273,245.911h5.16l-0.36,41.519h-5.159L1152.273,245.911z"/>
	<path fill="#181715" d="M1181.253,246.932l4.32-1.86l22.979,33.659h0.12l0.24-32.819h5.22l-0.359,40.679l-4.5,1.68l-22.8-33.959
		h-0.119l-0.24,33.119h-5.22L1181.253,246.932z"/>
	<path fill="#181715" d="M1237.412,245.911h21.359v4.32h-16.259l-0.12,14.1h15.839v4.319h-15.779l-0.12,14.459h16.68v4.32h-21.959
		L1237.412,245.911z"/>
	<path fill="#181715" d="M1280.252,246.932l4.32-1.86l22.979,33.659h0.12l0.24-32.819h5.22l-0.36,40.679l-4.499,1.68l-22.8-33.959
		h-0.119l-0.24,33.119h-5.22L1280.252,246.932z"/>
	<path fill="#181715" d="M1336.41,245.911h11.52c9.12,0,12.24,5.4,12.24,10.08c0,5.1-2.58,8.34-7.32,9.659v0.12
		c5.22,0.96,8.28,4.86,8.28,10.14c0,7.38-5.28,11.52-13.439,11.52h-11.64L1336.41,245.911z M1341.271,283.47h6.06
		c5.28,0,8.64-2.34,8.64-8.04c0-5.039-3.6-7.68-9.6-7.68h-4.859L1341.271,283.47z M1341.511,263.791h3.899c6.84,0,9.6-2.94,9.6-7.14
		c0-4.62-2.64-7.14-9.239-7.14h-4.141L1341.511,263.791z"/>
	<path fill="#181715" d="M1395.21,245.911h4.92l16.499,40.679l-5.159,1.68l-5.64-14.64h-17.159l-6.061,14.64l-4.8-1.5
		L1395.21,245.911z M1397.55,250.591h-0.12l-6.959,18.72h13.619L1397.55,250.591z"/>
	<path fill="#181715" d="M1468.349,245.911l-0.18,25.859c-0.18,13.319-8.7,16.499-16.8,16.499c-8.999,0-16.139-4.02-16.139-16.619
		c0-3.3,0.06-7.14,0.12-11.34l0.119-14.399h5.16l-0.12,15.3c-0.06,3.899-0.12,7.859-0.12,11.699c0,7.56,4.021,11.04,11.34,11.04
		c6.12,0,11.22-3,11.279-12.479l0.18-25.56H1468.349z"/>
</g>
</svg>
